<svg height="480pt" viewBox="0 0 480 480" width="480pt" xmlns="http://www.w3.org/2000/svg"><path d="m472 208h-104v-200c0-4.425781-3.574219-8-8-8h-224c-4.425781 0-8 3.574219-8 8v112h-88c-22.054688 0-40 17.945312-40 40v80c0 4.425781 3.574219 8 8 8h56v32c0 22.054688 17.945312 40 40 40h136v80h-64v-56c0-4.425781-3.574219-8-8-8h-80c-4.425781 0-8 3.574219-8 8v24h-72c-4.425781 0-8 3.574219-8 8v96c0 4.425781 3.574219 8 8 8h464c4.425781 0 8-3.574219 8-8v-256c0-4.425781-3.574219-8-8-8zm-456-48c0-13.230469 10.769531-24 24-24s24 10.769531 24 24v72h-48zm88 144c-13.230469 0-24-10.769531-24-24v-120c0-9.039062-3.128906-17.296875-8.207031-24h56.207031v144c0 13.230469-10.769531 24-24 24zm136 128h-64v-16h64zm-224-16h64v16h-64zm144-32v16h-64v-16zm-64 32h64v16h-64zm0-64h64v16h-64zm-80 32h64v16h-64zm0 64h64v16h-64zm80 0h64v16h-64zm80 0h64v16h-64zm80-8v-216h16v240h-16zm-8-232h-80v16h72v16h-72v16h72v16h-72v16h72v16h-104.015625c5.03125-6.6875 8.015625-15 8.015625-24v-264h208v192zm216 256h-176v-240h176zm0 0"/><path d="m208 40h80v16h-80zm0 0"/><path d="m184 72h128v16h-128zm0 0"/><path d="m168 112h104v16h-104zm0 0"/><path d="m312 112h16v16h-16zm0 0"/><path d="m168 144h104v16h-104zm0 0"/><path d="m312 144h16v16h-16zm0 0"/><path d="m168 176h104v16h-104zm0 0"/><path d="m312 176h16v16h-16zm0 0"/><path d="m312 288h128c4.425781 0 8-3.574219 8-8v-32c0-4.425781-3.574219-8-8-8h-128c-4.425781 0-8 3.574219-8 8v32c0 4.425781 3.574219 8 8 8zm8-32h112v16h-112zm0 0"/><path d="m344 336v-24h-16v16h-24v16h32c4.425781 0 8-3.574219 8-8zm0 0"/><path d="m384 328h-24v16h32c4.425781 0 8-3.574219 8-8v-24h-16zm0 0"/><path d="m440 328h-24v16h32c4.425781 0 8-3.574219 8-8v-24h-16zm0 0"/><path d="m344 384v-24h-16v16h-24v16h32c4.425781 0 8-3.574219 8-8zm0 0"/><path d="m384 376h-24v16h32c4.425781 0 8-3.574219 8-8v-24h-16zm0 0"/><path d="m440 376h-24v16h32c4.425781 0 8-3.574219 8-8v-24h-16zm0 0"/><path d="m344 432v-24h-16v16h-24v16h32c4.425781 0 8-3.574219 8-8zm0 0"/><path d="m384 424h-24v16h32c4.425781 0 8-3.574219 8-8v-24h-16zm0 0"/><path d="m440 424h-24v16h32c4.425781 0 8-3.574219 8-8v-24h-16zm0 0"/></svg>