<svg height="480pt" viewBox="0 0 480 480" width="480pt" xmlns="http://www.w3.org/2000/svg"><path d="m472 40h-28.6875l-37.65625-37.65625c-1.496094-1.503906-3.535156-2.34375-5.65625-2.34375h-312c-2.121094 0-4.160156.839844-5.65625 2.34375l-37.65625 37.65625h-36.6875c-4.414062 0-8 3.585938-8 8v216c0 4.414062 3.585938 8 8 8h36.6875l75.738281 75.734375c7.789063 7.792969 18.597657 12.265625 29.652344 12.265625 3.371094 0 6.683594-.488281 9.921875-1.289062v81.289062c0 22.054688 17.945312 40 40 40h240c22.054688 0 40-17.945312 40-40v-392c0-4.414062-3.585938-8-8-8zm-220.6875-24h145.375l37.65625 37.65625c1.496094 1.503906 3.535156 2.34375 5.65625 2.34375h24v176.207031c-6.703125-5.078125-14.960938-8.207031-24-8.207031h-36.6875l-124-124 14.34375-14.34375-11.3125-11.3125-52.398438 52.398438c-5.882812 5.882812-14.023437 9.257812-22.34375 9.257812-8.371093 0-16.320312-3.304688-22.3125-9.222656-5.984374-6.066406-9.289062-14.007813-9.289062-22.378906 0-8.320313 3.375-16.460938 9.257812-22.34375zm100.6875 192v16h-64v-16c0-4.40625 3.59375-8 8-8h48c4.40625 0 8 3.59375 8 8zm16 3.3125 12.6875 12.6875h-12.6875zm-236.265625 125.113281-78.078125-78.082031c-1.496094-1.503906-3.535156-2.34375-5.65625-2.34375h-32v-200h32c2.121094 0 4.160156-.839844 5.65625-2.34375l37.65625-37.65625h137.375l-54.742188 54.742188c-8.867187 8.867187-13.945312 21.128906-13.945312 33.65625 0 12.617187 4.945312 24.554687 13.976562 33.691406 9.070313 8.964844 21.015626 13.910156 33.625 13.910156 12.527344 0 24.789063-5.078125 33.65625-13.945312l26.742188-26.742188 72.6875 72.6875h-44.6875c-13.230469 0-24 10.769531-24 24v16h-72c-22.054688 0-40 17.945312-40 40v4.6875l-18.34375-18.34375-11.3125 11.3125 29.65625 29.65625v50.625c-9.464844 3.871094-21.039062 1.710938-28.265625-5.511719zm100.265625 23.574219h32v16h-32zm-8 32h48c4.414062 0 8-3.585938 8-8v-24h80v24c0 4.414062 3.585938 8 8 8h48c4.414062 0 8-3.585938 8-8v-24h16c2.121094 0 4.160156-.839844 5.65625-2.34375l18.34375-18.34375v68.6875h-16c-2.121094 0-4.160156.839844-5.65625 2.34375l-32 32c-1.503906 1.496094-2.34375 3.535156-2.34375 5.65625v16h-176v-16c0-2.121094-.839844-4.160156-2.34375-5.65625l-32-32c-1.496094-1.503906-3.535156-2.34375-5.65625-2.34375h-16v-68.6875l18.34375 18.34375c1.496094 1.503906 3.535156 2.34375 5.65625 2.34375h16v24c0 4.414062 3.585938 8 8 8zm152-32h32v16h-32zm-200 80v-16h12.6875l27.3125 27.3125v12.6875h-16c-13.230469 0-24-10.769531-24-24zm264 24h-16v-12.6875l27.3125-27.3125h12.6875v16c0 13.230469-10.769531 24-24 24zm24-147.3125-27.3125 27.3125h-233.375l-27.3125-27.3125v-52.6875c0-13.230469 10.769531-24 24-24h240c13.230469 0 24 10.769531 24 24zm0 0"/><path d="m312 400h16v16h-16zm0 0"/><path d="m312 312h16v16h-16zm0 0"/><path d="m344 312h16v16h-16zm0 0"/><path d="m280 312h16v16h-16zm0 0"/><path d="m32 288h16v16h-16zm0 0"/><path d="m32 320h16v16h-16zm0 0"/><path d="m32 352h16v16h-16zm0 0"/><path d="m32 384h16v16h-16zm0 0"/><path d="m64 384h16v16h-16zm0 0"/><path d="m96 384h16v16h-16zm0 0"/><path d="m128 384h16v16h-16zm0 0"/></svg>