<svg height="480pt" viewBox="0 0 480 480" width="480pt" xmlns="http://www.w3.org/2000/svg"><path d="m406.070312 258.800781-.054687.046875c-.679687-.800781-1.472656-1.511718-2.441406-2l-97.6875-48.847656h46.113281c4.414062 0 8-3.574219 8-8v-128c0-4.425781-3.585938-8-8-8h-88v-56c0-4.425781-3.585938-8-8-8h-128c-4.414062 0-8 3.574219-8 8v192c0 4.425781 3.585938 8 8 8h46.113281l-51.136719 25.566406c-12.769531-38.046875-48.6875-65.566406-90.976562-65.566406v16c36.039062 0 66.558594 23.96875 76.535156 56.785156l-32.121094 16.054688c-.972656.488281-1.757812 1.199218-2.4375 2l-.054687-.046875-48 56c-1.601563 1.863281-2.257813 4.375-1.769531 6.792969.488281 2.414062 2.054687 4.46875 4.261718 5.566406l43.585938 21.792968v43.054688c0 3.03125 1.710938 5.800781 4.425781 7.160156l160 80c1.117188.558594 2.351563.839844 3.574219.839844s2.457031-.28125 3.574219-.839844l160-80c2.714843-1.359375 4.425781-4.128906 4.425781-7.160156v-43.054688l43.574219-21.792968c2.203125-1.105469 3.777343-3.160156 4.265625-5.566406.488281-2.417969-.167969-4.921876-1.769532-6.792969zm-62.070312-178.800781v112h-80v-112zm-208-64h112v176h-24v-40h8v-16h-80v16h8v40h-24zm72 176h-32v-40h32zm-96.351562 65.121094c.199218 2.269531.351562 4.558594.351562 6.878906h16c0-4.929688-.488281-9.726562-1.207031-14.457031l83.09375-41.542969h60.226562l112 56-142.113281 71.054688-142.113281-71.054688zm-29.640626 16.832031 145.257813 72.621094-37.265625 43.480469-145.257812-72.621094zm5.992188 82.992187 100.425781 50.207032c1.132813.574218 2.359375.847656 3.574219.847656 2.28125 0 4.519531-.976562 6.078125-2.800781l33.921875-39.574219v93.429688l-144-72zm304 30.109376-144 72v-93.429688l33.929688 39.582031c1.558593 1.816407 3.789062 2.792969 6.070312 2.792969 1.207031 0 2.433594-.273438 3.574219-.839844l100.425781-50.214844zm-101.992188 3-37.265624-43.480469 145.257812-72.621094 37.265625 43.480469zm0 0"/><path d="m152 32h16v16h-16zm0 0"/><path d="m184 32h16v16h-16zm0 0"/><path d="m216 32h16v16h-16zm0 0"/><path d="m152 64h16v16h-16zm0 0"/><path d="m184 64h16v16h-16zm0 0"/><path d="m216 64h16v16h-16zm0 0"/><path d="m152 96h16v16h-16zm0 0"/><path d="m184 96h16v16h-16zm0 0"/><path d="m216 96h16v16h-16zm0 0"/><path d="m280 96h16v16h-16zm0 0"/><path d="m312 96h16v16h-16zm0 0"/><path d="m280 128h16v16h-16zm0 0"/><path d="m312 128h16v16h-16zm0 0"/><path d="m280 296c0-17.648438 14.351562-32 32-32v-16c-26.472656 0-48 21.527344-48 48zm0 0"/><path d="m184 232v16c17.648438 0 32 14.351562 32 32h16c0-26.472656-21.527344-48-48-48zm0 0"/><path d="m384 232h16c0-44.113281 35.886719-80 80-80v-16c-52.9375 0-96 43.0625-96 96zm0 0"/><path d="m64 104h16c0-44.113281-35.886719-80-80-80v16c35.289062 0 64 28.710938 64 64zm0 0"/><path d="m416 88v-16c-22.054688 0-40 17.945312-40 40h16c0-13.230469 10.769531-24 24-24zm0 0"/><path d="m432 72h16v16h-16zm0 0"/><path d="m216 296h16v16h-16zm0 0"/><path d="m64 120h16v16h-16zm0 0"/><path d="m0 168h16v16h-16zm0 0"/><path d="m248 224h16v16h-16zm0 0"/></svg>