<svg height="480pt" viewBox="-28 0 480 480" width="480pt" xmlns="http://www.w3.org/2000/svg"><path d="m184 200c-13.230469 0-24-10.769531-24-24h-16c0 22.054688 17.945312 40 40 40s40-17.945312 40-40h-16c0 13.230469-10.769531 24-24 24zm0 0"/><path d="m56 264c-30.871094 0-56 25.121094-56 56v152c0 4.414062 3.574219 8 8 8h296c4.425781 0 8-3.585938 8-8v-136h56c30.871094 0 56-25.121094 56-56v-136c0-14.878906-10.207031-27.425781-24-30.992188v-17.007812c0-13.230469-10.769531-24-24-24s-24 10.769531-24 24v168h-120v-16h96c4.425781 0 8-3.585938 8-8v-192c0-4.414062-3.574219-8-8-8h-96v-16c0-13.230469-10.769531-24-24-24h-48c-13.230469 0-24 10.769531-24 24v16h-96c-4.425781 0-8 3.585938-8 8v192c0 4.414062 3.574219 8 8 8h96v16zm170.214844 16h18.472656l-35.824219 35.824219-13.144531-17.519531zm-55.65625 47.246094 13.441406-17.917969 13.441406 17.917969-13.441406 13.441406zm8.496094 30.882812c1.457031 1.167969 3.167968 1.871094 4.945312 1.871094s3.488281-.703125 4.945312-1.871094l17.613282 105.871094h-45.117188zm-19.917969-42.304687-35.824219-35.824219h18.472656l30.496094 18.296875zm-143.136719 4.175781c0-22.054688 17.945312-40 40-40h44.6875l64.425781 64.425781-19.890625 119.574219h-73.222656v-136h-16v136h-40zm360-232c4.414062 0 8 3.59375 8 8v24c0 4.414062 3.574219 8 8 8 8.824219 0 16 7.175781 16 16h-40v-48c0-4.40625 3.585938-8 8-8zm-16 192c4.425781 0 8-3.585938 8-8v-112h40v120c0 22.054688-17.945312 40-40 40h-64c-4.425781 0-8 3.585938-8 8v136h-73.222656l-19.898438-119.574219 10.769532-10.769531 53.664062-53.65625zm-312-95.359375v-61.328125l18.34375 18.34375c1.496094 1.503906 3.527344 2.34375 5.65625 2.34375h25.136719c3.574219 13.761719 15.992187 24 30.863281 24s27.289062-10.238281 30.863281-24h50.273438c3.574219 13.761719 15.992187 24 30.863281 24s27.289062-10.238281 30.863281-24h25.136719c2.128906 0 4.160156-.839844 5.65625-2.34375l18.34375-18.34375v61.328125c-24.472656 3.527344-43.832031 22.886719-47.359375 47.359375h-177.28125c-3.527344-24.472656-22.886719-43.832031-47.359375-47.359375zm64-48.640625c0-8.824219 7.175781-16 16-16s16 7.175781 16 16-7.175781 16-16 16-16-7.175781-16-16zm112 0c0-8.824219 7.175781-16 16-16s16 7.175781 16 16-7.175781 16-16 16-16-7.175781-16-16zm64.808594 96c3.191406-15.648438 15.542968-28 31.191406-31.191406v31.191406zm-136.808594-208c0-4.40625 3.585938-8 8-8h48c4.414062 0 8 3.59375 8 8v16h-64zm168 32v44.6875l-27.3125 27.3125h-21.824219c-3.574219-13.761719-15.992187-24-30.863281-24s-27.289062 10.238281-30.863281 24h-50.273438c-3.574219-13.761719-15.992187-24-30.863281-24s-27.289062 10.238281-30.863281 24h-21.824219l-27.3125-27.3125v-44.6875zm-272 144.808594c15.648438 3.191406 28 15.542968 31.191406 31.191406h-31.191406zm168 47.191406v19.472656l-32 19.199219-32-19.199219v-19.472656zm0 0"/><path d="m240 352h40v16h-40zm0 0"/><path d="m176 72h16v16h-16zm0 0"/><path d="m208 72h16v16h-16zm0 0"/><path d="m144 72h16v16h-16zm0 0"/></svg>