<svg height="479pt" viewBox="0 0 479 479.99191" width="479pt" xmlns="http://www.w3.org/2000/svg"><path d="m80.492188 456.257812v15.734376c0 4.414062 3.574218 8 8 8h128c4.421874 0 8-3.585938 8-8v-56h32v56c0 4.414062 3.574218 8 8 8h128c4.421874 0 8-3.585938 8-8v-15.734376c0-61.792968 18.648437-125.105468 53.933593-183.082031 18.304688-30.078125 27.273438-64.710937 25.929688-100.167969-3.464844-91.496093-77.726563-167.359374-169.054688-172.695312-24.519531-1.417969-48.457031 2.015625-70.777343 9.886719-22.304688-7.878907-46.246094-11.304688-70.832032-9.886719-91.335937 5.335938-165.601562 81.199219-169.0625 172.703125-1.34375 35.449219 7.621094 70.082031 25.925782 100.160156 35.289062 57.984375 53.9375 121.289063 53.9375 183.082031zm136-56.265624h-56v-96c0-4.417969-3.578126-8-8-8h-53.121094l25-80h112.808594l-18.34375 18.34375 11.3125 11.3125 32-32c3.128906-3.128907 3.128906-8.183594 0-11.3125l-32-32-11.3125 11.3125 18.34375 18.34375h-107.808594l6.121094-19.585938c.734374-1.183594 1.160156-2.558594 1.183593-4.015625.558594-25.757813 7.136719-50.3125 18.710938-72.398437h45.105469v-16h-35.542969c7.007812-10.289063 15.109375-19.945313 24.519531-28.625 15.136719-13.96875 32.453125-24.574219 51.03125-31.886719 18.574219 7.3125 35.878906 17.917969 51.015625 31.886719 9.40625 8.679687 17.503906 18.335937 24.519531 28.625h-72.222656l18.34375-18.34375-11.3125-11.3125-32 32c-3.128906 3.128906-3.128906 8.183593 0 11.3125l32 32 11.3125-11.3125-18.351562-18.34375h81.789062c11.578125 22.085937 18.152344 46.640624 18.714844 72.398437.03125 1.457031.453125 2.832031 1.183594 4.015625l6.121093 19.585938h-63.121093v16h68.121093l25 80h-53.121093c-4.425782 0-8 3.582031-8 8v96zm-104-200c-26.472657 0-48-21.527344-48-48 0-26.472657 21.527343-48 48-48h24.871093c-10.085937 21.671874-15.816406 45.335937-16.632812 69.992187l-8.117188 26.007813zm255.878906 0-8.128906-26.007813c-.816407-24.65625-6.542969-48.320313-16.628907-69.992187h24.878907c26.472656 0 48 21.527343 48 48 0 26.472656-21.527344 48-48 48zm-58.015625-183.703126c83.199219 4.863282 150.847656 73.976563 154.015625 157.335938 1.214844 32.304688-6.945313 63.847656-23.617188 91.238281-36.804687 60.480469-56.261718 126.664063-56.261718 191.394531v7.734376h-112v-48h56c4.421874 0 8-3.585938 8-8v-96h56c2.542968 0 4.933593-1.207032 6.449218-3.265626 1.511719-2.054687 1.949219-4.695312 1.183594-7.125l-26.824219-85.851562c33.039063-2.476562 59.191407-30.09375 59.191407-63.757812 0-35.289063-28.710938-64-64-64h-33.367188c-8.800781-14.753907-19.738281-28.367188-32.761719-40.382813-11.871093-10.953125-24.910156-20.082031-38.808593-27.34375 15.121093-3.472656 30.824218-4.914063 46.800781-3.976563zm-293.742188 157.335938c3.160157-83.367188 70.804688-152.472656 154.015625-157.335938 16-.929687 31.710938.511719 46.824219 3.984376-13.914063 7.269531-26.96875 16.390624-38.832031 27.34375-13.027344 12.015624-23.960938 25.628906-32.761719 40.382812h-33.367187c-35.289063 0-64 28.710938-64 64 0 33.664062 26.152343 61.28125 59.191406 63.761719l-26.824219 85.855469c-.769531 2.429687-.320313 5.070312 1.183594 7.125 1.503906 2.058593 3.90625 3.25 6.449219 3.25h56v96c0 4.414062 3.574218 8 8 8h56v48h-112v-7.734376c0-64.730468-19.457032-130.914062-56.265626-191.402343-16.671874-27.382813-24.839843-58.9375-23.613281-91.230469zm0 0"/><path d="m232.492188 279.992188h16v16h-16zm0 0"/><path d="m232.492188 311.992188h16v16h-16zm0 0"/><path d="m264.492188 311.992188h16v16h-16zm0 0"/><path d="m200.492188 311.992188h16v16h-16zm0 0"/></svg>