<svg height="480pt" viewBox="0 0 480 480" width="480pt" xmlns="http://www.w3.org/2000/svg"><path d="m472 208h-96v-200c0-4.414062-3.585938-8-8-8h-296c-2.121094 0-4.160156.839844-5.65625 2.34375l-64 64c-1.503906 1.496094-2.34375 3.535156-2.34375 5.65625v336c0 4.414062 3.585938 8 8 8h248v56c0 4.414062 3.585938 8 8 8h208c4.414062 0 8-3.585938 8-8v-64c0-4.414062-3.585938-8-8-8h-8v-16h8c4.414062 0 8-3.585938 8-8v-64c0-4.414062-3.585938-8-8-8h-8v-16h8c4.414062 0 8-3.585938 8-8v-64c0-4.414062-3.585938-8-8-8zm-408-180.6875v36.6875h-36.6875zm-48 372.6875v-320h56c4.414062 0 8-3.585938 8-8v-56h280v192h-96c-4.414062 0-8 3.585938-8 8v64c0 4.414062 3.585938 8 8 8h8v16h-8c-4.414062 0-8 3.585938-8 8v64c0 4.414062 3.585938 8 8 8h8v16zm448 64h-192v-48h192zm-16-64h-160v-16h160zm16-32h-192v-48h192zm-16-64h-160v-16h160zm16-32h-192v-48h192zm0 0"/><path d="m296 240h16v16h-16zm0 0"/><path d="m336 240h104v16h-104zm0 0"/><path d="m56 208h16v16h-16zm0 0"/><path d="m96 208h104v16h-104zm0 0"/><path d="m56 240h16v16h-16zm0 0"/><path d="m96 240h104v16h-104zm0 0"/><path d="m56 272h16v16h-16zm0 0"/><path d="m96 272h104v16h-104zm0 0"/><path d="m56 304h16v16h-16zm0 0"/><path d="m96 304h104v16h-104zm0 0"/><path d="m56 336h16v16h-16zm0 0"/><path d="m96 336h104v16h-104zm0 0"/><path d="m296 336h16v16h-16zm0 0"/><path d="m336 336h104v16h-104zm0 0"/><path d="m296 432h16v16h-16zm0 0"/><path d="m336 432h104v16h-104zm0 0"/><path d="m259.800781 112c13.726563-25.097656 15.511719-49.144531 2.421875-62.222656-13.085937-13.082032-37.132812-11.296875-62.222656 2.421875-25.097656-13.726563-49.144531-15.511719-62.230469-2.421875-13.089843 13.078125-11.304687 37.132812 2.421875 62.222656-13.726562 25.097656-15.511718 49.144531-2.421875 62.222656 6.03125 6.035156 14.390625 8.90625 24.109375 8.90625 11.359375 0 24.59375-4.050781 38.113282-11.449218 13.519531 7.390624 26.75 11.449218 38.121093 11.449218 9.71875 0 18.078125-2.871094 24.109375-8.90625 13.089844-13.078125 11.304688-37.125-2.421875-62.222656zm-21.863281-55.246094c5.605469 0 10.09375 1.453125 12.984375 4.335938 6.101563 6.101562 5.773437 19.429687-1.1875 35.308594-4.597656-6.222657-9.839844-12.390626-15.789063-18.34375-5.929687-5.925782-12.082031-11.160157-18.289062-15.742188 8.351562-3.648438 16.03125-5.558594 22.28125-5.558594zm3.261719 55.246094c-4.894531 7.457031-11.070313 15.136719-18.566407 22.632812-7.496093 7.496094-15.167968 13.679688-22.632812 18.566407-7.457031-4.894531-15.128906-11.070313-22.625-18.566407-7.496094-7.496093-13.679688-15.167968-18.566406-22.632812 4.894531-7.457031 11.070312-15.136719 18.566406-22.632812 7.503906-7.503907 15.167969-13.582032 22.632812-18.480469 7.464844 4.898437 15.128907 10.984375 22.632813 18.480469 7.488281 7.496093 13.671875 15.175781 18.558594 22.632812zm-92.109375-50.910156c2.878906-2.882813 7.367187-4.335938 12.980468-4.335938 6.25 0 13.929688 1.910156 22.28125 5.558594-6.207031 4.589844-12.359374 9.816406-18.289062 15.742188-5.949219 5.953124-11.191406 12.121093-15.789062 18.34375-6.960938-15.878907-7.296876-29.207032-1.183594-35.308594zm0 101.820312c-6.105469-6.101562-5.777344-19.429687 1.183594-35.308594 4.597656 6.222657 9.839843 12.390626 15.789062 18.34375 5.9375 5.933594 12.082031 11.214844 18.289062 15.808594-15.863281 6.933594-29.167968 7.253906-35.261718 1.15625zm101.820312 0c-6.09375 6.105469-19.40625 5.785156-35.269531-1.15625 6.207031-4.59375 12.359375-9.875 18.296875-15.808594 5.949219-5.953124 11.191406-12.121093 15.789062-18.34375 6.960938 15.878907 7.296876 29.207032 1.183594 35.308594zm0 0"/><path d="m192 104h16v16h-16zm0 0"/></svg>