<svg height="480pt" viewBox="0 0 480 480" width="480pt" xmlns="http://www.w3.org/2000/svg"><path d="m392 284c0-15.441406-12.558594-28-28-28h-248c-15.441406 0-28 12.558594-28 28s12.558594 28 28 28h18.984375c-3.550781 13.792969-16.105469 24-30.984375 24-26.472656 0-48 21.527344-48 48v48c0 26.472656 21.527344 48 48 48h272c26.472656 0 48-21.511719 48-47.96875v-49.183594c.007812-12.511718-4.863281-24.28125-13.71875-33.128906-8.847656-8.855469-20.617188-13.71875-33.136719-13.71875h-1c-14.953125 0-27.550781-10.207031-31.128906-24h18.984375c15.441406 0 28-12.558594 28-28zm-56.007812 12.015625c-4.417969 0-7.992188 3.585937-7.992188 8 0 26.464844 21.59375 47.984375 48.144531 47.984375h1c8.246094 0 16 3.207031 21.832031 9.03125 5.824219 5.824219 9.023438 13.570312 9.023438 21.808594v49.183594c0 17.632812-14.351562 31.976562-32 31.976562h-272c-17.648438 0-32-14.351562-32-32v-48c0-17.648438 14.351562-32 32-32 26.472656 0 48-21.527344 48-48 0-4.425781-3.574219-8-8-8h-28c-6.617188 0-12-5.382812-12-12s5.382812-12 12-12h248c6.617188 0 12 5.382812 12 12s-5.382812 12-12.007812 12zm0 0"/><path d="m144 368c-22.054688 0-40 17.945312-40 40s17.945312 40 40 40 40-17.945312 40-40-17.945312-40-40-40zm0 64c-13.230469 0-24-10.769531-24-24s10.769531-24 24-24 24 10.769531 24 24-10.769531 24-24 24zm0 0"/><path d="m240 368c-22.054688 0-40 17.945312-40 40s17.945312 40 40 40 40-17.945312 40-40-17.945312-40-40-40zm0 64c-13.230469 0-24-10.769531-24-24s10.769531-24 24-24 24 10.769531 24 24-10.769531 24-24 24zm0 0"/><path d="m296 408c0 22.054688 17.945312 40 40 40s40-17.945312 40-40-17.945312-40-40-40-40 17.945312-40 40zm40-24c13.230469 0 24 10.769531 24 24s-10.769531 24-24 24-24-10.769531-24-24 10.769531-24 24-24zm0 0"/><path d="m472 72h-29.574219l-45.984375-30.65625c-1.3125-.871094-2.867187-1.34375-4.441406-1.34375h-40c-2.128906 0-4.160156.839844-5.65625 2.34375l-16.488281 16.488281c-12.808594-6.96875-27.078125-10.832031-41.855469-10.832031-48.519531 0-88 39.480469-88 88s39.480469 88 88 88c26.519531 0 50.871094-11.679688 67.625-32h116.375c4.425781 0 8-3.574219 8-8v-104c0-4.425781-3.574219-8-8-8zm-184 136c-39.703125 0-72-32.296875-72-72s32.296875-72 72-72c13.902344 0 27.375 3.953125 38.953125 11.449219 14.78125 9.511719 25.542969 24.03125 30.320313 40.917969 1.085937 3.785156 1.847656 7.671874 2.285156 11.632812h-16.199219c-3.902344-27.089844-27.207031-48-55.359375-48-30.871094 0-56 25.128906-56 56s25.128906 56 56 56v-16c-22.054688 0-40-17.945312-40-40s17.945312-40 40-40c19.777344 0 36.128906 14.457031 39.328125 33.335938-5.199219 1.464843-10.015625 4.113281-13.945313 8.039062-6.054687 6.058594-9.382812 14.097656-9.382812 22.625 0 2.152344.230469 4.257812.632812 6.289062.136719.695313.40625 1.328126.589844 2.007813.351563 1.3125.6875 2.625 1.203125 3.855469.316407.769531.757813 1.472656 1.125 2.207031.539063 1.066406 1.050781 2.128906 1.695313 3.121094.480468.734375 1.058594 1.382812 1.601562 2.070312.695313.890625 1.367188 1.792969 2.144532 2.601563.625.648437 1.3125 1.199218 1.984374 1.792968.832032.726563 1.648438 1.460938 2.550782 2.101563.738281.519531 1.527344.953125 2.304687 1.417969.953125.566406 1.902344 1.121094 2.921875 1.582031.820313.378906 1.6875.671875 2.550782.976563 1.0625.375 2.128906.738281 3.230468 1.007812.898438.214844 1.816406.351562 2.738282.488281.703124.105469 1.375.320313 2.101562.375-12.640625 10.378907-28.496094 16.105469-45.375 16.105469zm87.449219-80c-.335938-3.734375-.929688-7.40625-1.738281-11.023438l2.050781-1.886718 12.925781 12.910156zm88.550781 48h-128c-8.824219 0-16-7.175781-16-16 0-4.257812 1.664062-8.273438 4.695312-11.304688s7.046876-4.695312 11.304688-4.695312h72c3.230469 0 6.160156-1.945312 7.390625-4.9375 1.242187-2.992188.554687-6.429688-1.734375-8.71875l-32-32c-3.023438-3.039062-7.914062-3.128906-11.070312-.230469l-2.28125 2.09375c-5.601563-12.582031-14.066407-23.6875-24.792969-32.40625l11.800781-11.800781h34.261719l45.984375 30.65625c1.3125.871094 2.867187 1.34375 4.441406 1.34375h24zm0 0"/><path d="m184 168v-160c0-4.425781-3.574219-8-8-8h-176v16h120.640625c3.527344 24.472656 22.886719 43.832031 47.359375 47.359375v49.28125c-24.472656 3.527344-43.832031 22.886719-47.359375 47.359375h-120.640625v16h176c4.425781 0 8-3.574219 8-8zm-47.191406-152h31.191406v31.191406c-15.648438-3.191406-28-15.542968-31.191406-31.191406zm0 144c3.191406-15.648438 15.542968-28 31.191406-31.191406v31.191406zm0 0"/><path d="m48 88c0-26.472656-21.527344-48-48-48v16c17.648438 0 32 14.351562 32 32s-14.351562 32-32 32v16c26.472656 0 48-21.527344 48-48zm0 0"/><path d="m168 192h16v16h-16zm0 0"/><path d="m136 192h16v16h-16zm0 0"/><path d="m136 224h16v16h-16zm0 0"/><path d="m104 192h16v16h-16zm0 0"/></svg>