<svg height="486pt" viewBox="0 -3 486.26997 486" width="486pt" xmlns="http://www.w3.org/2000/svg"><path d="m5.496094 420.890625 26.761718 8.839844 4.808594 27.777343c.496094 2.832032 2.46875 5.191407 5.183594 6.167969.878906.304688 1.792969.464844 2.703125.464844 1.886719 0 3.75-.671875 5.222656-1.945313l34.273438-29.550781c1.609375-1.382812 2.59375-3.351562 2.75-5.464843l2.523437-34.128907c10.101563 10.074219 21.207032 19.128907 33.125 27.058594l-17.421875 17.414063c-4.710937 4.71875-7.304687 10.984374-7.304687 17.65625 0 6.578124 2.664062 13.015624 7.304687 17.65625 4.640625 4.640624 11.078125 7.304687 17.65625 7.304687 6.679688 0 12.949219-2.59375 17.65625-7.304687l29.160157-29.160157c22.597656 8.046875 46.894531 12.464844 72.222656 12.464844 25.320312 0 49.625-4.417969 72.222656-12.464844l29.152344 29.160157c4.714844 4.710937 10.976562 7.304687 17.664062 7.304687 6.578125 0 13.015625-2.664063 17.65625-7.304687 4.640625-4.640626 7.304688-11.078126 7.304688-17.65625 0-6.671876-2.59375-12.9375-7.304688-17.65625l-17.421875-17.414063c9.398438-6.25 18.292969-13.210937 26.582031-20.816406l5.296876 2.511719 12.335937 34.550781c.710937 2 2.191406 3.632812 4.113281 4.535156l40.894532 19.386719c1.085937.511718 2.253906.773437 3.425781.773437 1.621093 0 3.230469-.496093 4.597656-1.453125 2.359375-1.664062 3.640625-4.464844 3.359375-7.328125l-2.75-28.058593 23.453125-15.632813c2.402344-1.597656 3.753906-4.367187 3.546875-7.230469-.207031-2.871094-1.953125-5.414062-4.554688-6.648437l-40.894531-19.375c-1.917969-.914063-4.113281-1.023438-6.113281-.304688l-34.550781 12.328125-.09375-.046875c35.988281-38.601562 58.078125-90.335937 58.078125-147.160156 0-56.679687-21.976563-108.296875-57.816406-146.871094l5.128906-5.128906h36.6875c2.121094 0 4.160156-.839844 5.65625-2.34375l32-32c2.039062-2.039063 2.824218-5.015625 2.054687-7.792969-.765625-2.785156-2.976562-4.929687-5.765625-5.625l-27.34375-6.832031-6.839844-27.34375c-.699218-2.800781-2.851562-5-5.625-5.773437-2.792968-.777344-5.761718.015624-7.792968 2.054687l-32 32c-1.503906 1.496094-2.34375 3.527344-2.34375 5.65625v36.6875l-5.128906 5.128906c-38.574219-35.839843-90.191407-57.816406-146.871094-57.816406-119.105469 0-216 96.894531-216 216 0 52.472656 18.824218 100.625 50.054687 138.09375l-33.3125-2.453125c-2.132812-.175781-4.207031.535156-5.8125 1.910156l-34.273437 29.542969c-2.183594 1.882813-3.183594 4.800781-2.625 7.625.5625 2.824219 2.609375 5.128906 5.34375 6.03125zm431.441406-29.695313 25.136719 11.90625-15.6875 10.460938c-2.457031 1.640625-3.816407 4.496094-3.523438 7.441406l1.839844 18.769532-25.125-11.914063-9.648437-27.015625zm-307.511719 70.328126c-3.34375 3.34375-9.335937 3.351562-12.679687 0-1.671875-1.664063-2.625-3.976563-2.625-6.34375 0-2.398438.929687-4.65625 2.617187-6.34375l20.160157-20.160157c5.480468 3.074219 11.117187 5.894531 16.878906 8.488281zm238.070313-12.6875c1.695312 1.6875 2.625 3.945312 2.625 6.34375 0 2.367187-.953125 4.679687-2.617188 6.34375-3.359375 3.351562-9.34375 3.34375-12.6875 0l-24.351562-24.351563c5.761718-2.59375 11.398437-5.414063 16.878906-8.488281zm-125.375-8.695313c-55.214844 0-105.273438-22.496094-141.503906-58.800781l30.457031-26.265625c28.808593 27.84375 67.925781 45.066406 111.046875 45.066406 33.175781 0 64.015625-10.160156 89.601562-27.511719l40.527344 19.207032c-35.007812 30.070312-80.464844 48.304687-130.128906 48.304687zm87.75-86.089844-16.335938-7.742187c34.105469-23.015625 56.585938-62.015625 56.585938-106.167969 0-32.417969-12.207032-61.96875-32.144532-84.542969l11.3125-11.3125c22.816407 25.496094 36.832032 59.03125 36.832032 95.855469 0 46.359375-22.113282 87.558594-56.25 113.910156zm-55.75-113.910156c0 17.648437-14.351563 32-32 32-17.648438 0-32-14.351563-32-32s14.351562-32 32-32c5.921875 0 11.390625 1.71875 16.152344 4.535156l-21.808594 21.808594 11.3125 11.3125 21.808594-21.808594c2.816406 4.761719 4.535156 10.230469 4.535156 16.152344zm-4.230469-39.082031c-7.847656-5.589844-17.417969-8.917969-27.769531-8.917969-26.472656 0-48 21.527344-48 48s21.527344 48 48 48 48-21.527344 48-48c0-10.351563-3.328125-19.921875-8.921875-27.769531l45.464843-45.464844c17.058594 19.65625 27.457032 45.226562 27.457032 73.234375 0 42.128906-23.398438 78.863281-57.863282 97.984375l-55.5625-26.335938-6.847656 14.453126 42.9375 20.347656c-10.9375 3.566406-22.566406 5.550781-34.664062 5.550781-28.609375 0-54.664063-10.871094-74.480469-28.59375l39.703125-34.238281-10.445312-12.113282-40.480469 34.90625c-16.386719-19.480468-26.296875-44.570312-26.296875-71.960937 0-61.761719 50.238281-112 112-112 28.007812 0 53.574218 10.398437 73.230468 27.457031zm-114.441406 133c22.832031 21.082031 53.222656 34.082031 86.671875 34.082031 19.425781 0 37.777344-4.472656 54.28125-12.25l18.054687 8.5625c-21.28125 12.429687-45.953125 19.6875-72.335937 19.6875-38.289063 0-73.039063-15.121094-98.855469-39.570313zm171.214843-189.773438c-22.574218-19.9375-52.128906-32.144531-84.542968-32.144531-70.574219 0-128 57.421875-128 128 0 31.375 11.390625 60.113281 30.199218 82.398437l-12.101562 10.433594c-21.226562-25.089844-34.097656-57.472656-34.097656-92.832031 0-79.402344 64.601562-144 144-144 36.824218 0 70.359375 14.015625 95.847656 36.839844zm115.457032 95.855469c0 54.4375-21.894532 103.847656-57.304688 139.953125l-38.886718-18.433594c34.328124-29.367187 56.191406-72.902344 56.191406-121.519531 0-41.242187-15.816406-78.761719-41.527344-107.160156l28.40625-28.410157c32.945312 35.671876 53.121094 83.296876 53.121094 135.570313zm-32-196.6875 19.664062-19.664063 4.574219 18.285157c.722656 2.867187 2.960937 5.113281 5.824219 5.824219l18.296875 4.578124-19.671875 19.664063h-28.6875zm-168-3.3125c52.273437 0 99.894531 20.175781 135.566406 53.121094l-28.40625 28.40625c-28.398438-25.710938-65.921875-41.527344-107.160156-41.527344-88.222656 0-160 71.777344-160 160 0 39.351563 14.34375 75.375 38 103.269531l-30.3125 26.136719c-29.703125-34.910156-47.6875-80.085937-47.6875-129.40625 0-110.28125 89.71875-200 200-200zm-197.128906 351.832031 28.609374 2.121094-2.121093 28.605469-21.054688 18.160156-3.214843-18.574219c-.507813-2.90625-2.570313-5.304687-5.378907-6.226562l-17.902343-5.910156zm0 0"/><path d="m234.121094 152.140625h16v16h-16zm0 0"/><path d="m266.121094 152.140625h16v16h-16zm0 0"/><path d="m202.121094 152.140625h16v16h-16zm0 0"/></svg>