<svg height="480pt" viewBox="0 0 480 480.002" width="480pt" xmlns="http://www.w3.org/2000/svg"><path d="m368 320.003906h-32v-176h64c4.425781 0 8-3.578125 8-8v-32c0-4.425781-3.574219-8-8-8h-64v-24h64c4.425781 0 8-3.578125 8-8v-32c0-4.425781-3.574219-8-8-8h-64v-16c0-4.425781-3.574219-7.99999975-8-7.99999975h-48c-4.421875 0-8 3.57421875-8 7.99999975v184h-52.6875l-44.28125-44.28125c-7.550781-7.550781-17.597656-11.71875-28.285156-11.71875h-11.625c10.398437-10.179687 16.878906-24.339844 16.878906-40v-80c0-2.953125-1.621094-5.664062-4.222656-7.058594-2.601563-1.390624-5.769532-1.230468-8.207032.402344l-18.546874 12.359375-19.359376-19.359375c-3.128906-3.128906-8.183593-3.128906-11.3125 0l-19.359374 19.359375-18.550782-12.359375c-2.457031-1.632812-5.617187-1.792968-8.207031-.402344-2.609375 1.394532-4.234375 4.105469-4.234375 7.058594v80c0 15.660156 6.480469 29.820313 16.890625 40h-.890625c-30.871094 0-56 25.125-56 56v104c0 4.421875 3.578125 8 8 8h32v168c0 4.421875 3.578125 8 8 8h48c4.425781 0 8-3.578125 8-8v-79.210937l16.160156 80.785156c.746094 3.726563 4.023438 6.425781 7.839844 6.425781h48c2.359375 0 4.601562-1.050781 6.128906-2.851562 1.511719-1.804688 2.167969-4.191406 1.761719-6.511719l-31.890625-183.328125v-76l34.34375 34.34375c1.496094 1.503906 3.527344 2.347656 5.65625 2.347656h80v72h-32c-30.871094 0-56 25.125-56 56 0 30.871094 25.128906 56 56 56 1.335938 0 2.6875-.058594 4.066406-.167968 13.285156 19.972656 35.773438 32.167968 59.933594 32.167968s46.648438-12.195312 59.9375-32.167968c1.375.109374 2.726562.167968 4.0625.167968 30.871094 0 56-25.128906 56-56 0-30.875-25.128906-56-56-56zm-260.941406-168-11.058594 22.109375-11.054688-22.109375zm-39.496094-113.347656c3.167969 2.128906 7.390625 1.707031 10.09375-1l18.34375-18.34375 18.34375 18.34375c2.695312 2.707031 6.929688 3.121094 10.097656 1l11.558594-7.710938v25.058594h-80v-25.058594zm-11.5625 57.347656v-24h80v24c0 8.511719-2.71875 16.375-7.269531 22.871094-9.785157-3.128906-16.730469-12.296875-16.730469-22.871094h-16c0 14.574219 7.976562 27.46875 19.929688 34.46875-5.890626 3.425782-12.640626 5.53125-19.929688 5.53125-22.054688 0-40-17.945312-40-40zm139.3125 136-45.65625-45.65625c-2.289062-2.289062-5.71875-2.96875-8.71875-1.738281-2.992188 1.234375-4.9375 4.160156-4.9375 7.394531v96c0 .460938.039062.917969.121094 1.367188l30.375 174.632812h-31.933594l-30.722656-153.570312c-.808594-4.03125-4.605469-6.75-8.628906-6.390625-4.089844.40625-7.210938 3.847656-7.210938 7.960937v152h-32v-272h-16v96h-24v-96c0-22.058594 17.945312-40 40-40h11.058594l21.789062 43.574219c1.351563 2.710937 4.121094 4.425781 7.152344 4.425781s5.800781-1.714844 7.160156-4.425781l21.785156-43.574219h21.800782c6.414062 0 12.445312 2.492188 16.976562 7.03125l46.621094 46.621094c1.496094 1.503906 3.527344 2.347656 5.65625 2.347656h56v24zm172.6875 184c-2.128906 0-4.351562-.210937-6.816406-.632812-3.351563-.5625-6.6875 1.007812-8.34375 3.96875-9.917969 17.679687-28.640625 28.664062-48.839844 28.664062s-38.917969-10.984375-48.839844-28.664062c-1.429687-2.554688-4.121094-4.089844-6.976562-4.089844-.453125 0-.902344.039062-1.367188.121094-2.464844.421875-4.6875.632812-6.816406.632812-22.054688 0-40-17.945312-40-40 0-22.058594 17.945312-40 40-40h40c4.425781 0 8-3.578125 8-8v-312h32v16c0 4.421875 3.578125 8 8 8h64v16h-64c-4.421875 0-8 3.574219-8 8v40c0 4.421875 3.578125 8 8 8h64v16h-64c-4.421875 0-8 3.574219-8 8v192c0 4.421875 3.578125 8 8 8h40c22.058594 0 40 17.941406 40 40 0 22.054688-17.941406 40-40 40zm0 0"/><path d="m304 384.003906c-13.230469 0-24 10.765625-24 24 0 13.230469 10.769531 24 24 24 13.234375 0 24-10.769531 24-24 0-13.234375-10.765625-24-24-24zm0 32c-4.414062 0-8-3.585937-8-8 0-4.417968 3.585938-8 8-8 4.417969 0 8 3.582032 8 8 0 4.414063-3.582031 8-8 8zm0 0"/><path d="m440 136.003906h-16c0 22.054688-17.941406 40-40 40v16c22.058594 0 40 17.941406 40 40h16c0-22.058594 17.945312-40 40-40v-16c-22.054688 0-40-17.945312-40-40zm-8 67.300782c-4.75-7.917969-11.390625-14.550782-19.304688-19.300782 7.921876-4.753906 14.554688-11.394531 19.304688-19.304687 4.753906 7.917969 11.394531 14.550781 19.304688 19.304687-7.910157 4.75-14.550782 11.390625-19.304688 19.300782zm0 0"/><path d="m296 352.003906h16v16h-16zm0 0"/><path d="m328 352.003906h16v16h-16zm0 0"/><path d="m264 352.003906h16v16h-16zm0 0"/></svg>