<svg height="496pt" viewBox="0 -8 496 496" width="496pt" xmlns="http://www.w3.org/2000/svg"><path d="m24 480h16v-64c0-2.128906-.839844-4.160156-2.34375-5.65625l-21.65625-21.65625v-68.6875c0-4.414062 3.59375-8 8-8s8 3.585938 8 8v56h16v-128c0-4.414062 3.59375-8 8-8s8 3.585938 8 8v104h16v-104c0-4.414062 3.59375-8 8-8s8 3.585938 8 8v104h16v-104c0-4.414062 3.59375-8 8-8s8 3.585938 8 8v104h16v-104c0-4.414062 3.59375-8 8-8s8 3.585938 8 8v232h16v-232c0-13.230469-10.769531-24-24-24-6.167969 0-11.742188 2.40625-16 6.238281-4.257812-3.839843-9.832031-6.238281-16-6.238281s-11.742188 2.40625-16 6.238281c-4.257812-3.839843-9.832031-6.238281-16-6.238281s-11.742188 2.40625-16 6.238281c-4.257812-3.832031-9.832031-6.238281-16-6.238281-13.230469 0-24 10.769531-24 24v49.472656c-2.511719-.898437-5.183594-1.472656-8-1.472656-13.230469 0-24 10.769531-24 24v72c0 2.128906.839844 4.160156 2.34375 5.65625l21.65625 21.65625zm0 0"/><path d="m290.34375 218.34375c-1.503906 1.496094-2.34375 3.527344-2.34375 5.65625v256h16v-252.6875l21.65625-21.65625c1.503906-1.496094 2.34375-3.527344 2.34375-5.65625v-176c0-13.230469-10.769531-24-24-24s-24 10.769531-24 24v41.472656c-2.511719-.898437-5.183594-1.472656-8-1.472656-6.167969 0-11.742188 2.40625-16 6.238281-4.257812-3.839843-9.832031-6.238281-16-6.238281-2.816406 0-5.488281.574219-8 1.472656v-41.472656c0-13.230469-10.769531-24-24-24s-24 10.769531-24 24v96h-24c-4.414062 0-8 3.574219-8 8v48c0 2.128906.839844 4.160156 2.34375 5.65625l37.65625 37.65625v260.6875h16v-264c0-2.128906-.839844-4.160156-2.34375-5.65625l-37.65625-37.65625v-36.6875h70.632812c-3.304687 9.3125-12.199218 16-22.632812 16h-24v16h24c21.398438 0 38.785156-16.9375 39.808594-38.078125.0625-.058594.128906-.105469.191406-.160156 4.257812 3.839843 9.832031 6.238281 16 6.238281 13.230469 0 24-10.769531 24-24v-88c0-4.414062 3.59375-8 8-8s8 3.585938 8 8v172.6875zm-50.34375-138.34375c4.40625 0 8 3.585938 8 8v24c0 4.414062-3.59375 8-8 8s-8-3.585938-8-8v-24c0-4.414062 3.59375-8 8-8zm-40-56c0-4.414062 3.59375-8 8-8s8 3.585938 8 8v88c0 2.816406.574219 5.488281 1.472656 8h-17.472656zm72 96c-4.40625 0-8-3.585938-8-8v-24c0-4.414062 3.59375-8 8-8s8 3.585938 8 8v24c0 4.414062-3.59375 8-8 8zm0 0"/><path d="m472 224c-6.167969 0-11.742188 2.40625-16 6.238281-4.257812-3.839843-9.832031-6.238281-16-6.238281s-11.742188 2.40625-16 6.238281c-4.257812-3.839843-9.832031-6.238281-16-6.238281s-11.742188 2.40625-16 6.238281c-4.257812-3.839843-9.832031-6.238281-16-6.238281-13.230469 0-24 10.769531-24 24v49.472656c-2.511719-.898437-5.183594-1.472656-8-1.472656-13.230469 0-24 10.769531-24 24v72c0 2.128906.839844 4.160156 2.34375 5.65625l21.65625 21.65625v60.6875h16v-64c0-2.128906-.839844-4.160156-2.34375-5.65625l-21.65625-21.65625v-68.6875c0-4.414062 3.59375-8 8-8s8 3.585938 8 8v56h16v-128c0-4.414062 3.59375-8 8-8s8 3.585938 8 8v104h16v-104c0-4.414062 3.59375-8 8-8s8 3.585938 8 8v104h16v-104c0-4.414062 3.59375-8 8-8s8 3.585938 8 8v104h16v-104c0-4.414062 3.59375-8 8-8s8 3.585938 8 8v232h16v-232c0-13.230469-10.769531-24-24-24zm0 0"/><path d="m352 112h16v16h-16zm0 0"/><path d="m384 112h16v16h-16zm0 0"/><path d="m384 144h16v16h-16zm0 0"/><path d="m384 80h16v16h-16zm0 0"/><path d="m416 112h16v16h-16zm0 0"/><path d="m416 144h16v16h-16zm0 0"/><path d="m416 176h16v16h-16zm0 0"/><path d="m416 80h16v16h-16zm0 0"/><path d="m416 48h16v16h-16zm0 0"/><path d="m112 112h16v16h-16zm0 0"/><path d="m80 112h16v16h-16zm0 0"/><path d="m80 144h16v16h-16zm0 0"/><path d="m80 80h16v16h-16zm0 0"/><path d="m48 112h16v16h-16zm0 0"/><path d="m48 144h16v16h-16zm0 0"/><path d="m48 176h16v16h-16zm0 0"/><path d="m48 80h16v16h-16zm0 0"/><path d="m48 48h16v16h-16zm0 0"/></svg>