<svg height="489pt" viewBox="-4 0 489 489.59609" width="489pt" xmlns="http://www.w3.org/2000/svg"><path d="m184.296875 441.597656h16v16h-16zm0 0"/><path d="m152.296875 441.597656h16v16h-16zm0 0"/><path d="m120.296875 441.597656h16v16h-16zm0 0"/><path d="m472.296875 49.597656h-29.574219l-45.984375-30.65625c-1.3125-.875-2.863281-1.34375-4.441406-1.34375h-40c-2.117187 0-4.160156.839844-5.65625 2.34375l-10.207031 10.207032c-18.832032-13.640626-39.597656-23.808594-62.054688-29.878907-2.394531-.632812-4.976562-.136719-6.953125 1.375-1.96875 1.511719-3.128906 3.855469-3.128906 6.351563v185.601562c0 4.421875 3.585937 8 8 8h136c4.417969 0 8-3.578125 8-8v-8c0-5.296875-.3125-10.648437-.765625-16h56.765625c4.417969 0 8-3.578125 8-8v-104c0-4.425781-3.582031-8-8-8zm-72 136h-120v-166.832031c18.816406 6.308594 36.3125 15.742187 52.152344 28.125 14.066406 10.847656 26.335937 23.792969 36.480469 38.480469 4.480468 6.441406 8.542968 13.210937 12.144531 20.226562h-28.777344c-8.535156 0-16.566406 3.328125-22.613281 9.382813-6.050782 6.046875-9.386719 14.085937-9.386719 22.617187 0 17.644532 14.351563 32 32 32h47.257813c.496093 5.351563.742187 10.710938.742187 16zm64-32h-112c-8.824219 0-16-7.175781-16-16 0-4.257812 1.664063-8.273437 4.695313-11.304687 3.035156-3.03125 7.042968-4.695313 11.304687-4.695313h56c3.234375 0 6.152344-1.953125 7.394531-4.9375 1.238282-2.992187.550782-6.433594-1.738281-8.71875l-32.421875-32.417968c-9.242188-13.230469-20.144531-25.09375-32.351562-35.488282l6.429687-6.4375h34.265625l45.984375 30.65625c1.3125.871094 2.863281 1.34375 4.4375 1.34375h24zm0 0"/><path d="m48.296875 481.597656c0 4.421875 3.585937 8 8 8h184c4.417969 0 8-3.578125 8-8v-24h80c22.058594 0 40-17.945312 40-40v-64h48c2.640625 0 5.105469-1.296875 6.59375-3.472656s1.824219-4.945312.871094-7.410156l-39.464844-102.605469v-14.511719c0-4.425781-3.582031-8-8-8h-128v-177.632812c0-3.617188-2.421875-6.785156-5.917969-7.730469-16.359375-4.40625-33.207031-6.636719-50.082031-6.636719-105.863281 0-192 86.132813-192 192v52.117188c0 44.800781 17.015625 86.976562 48 119.152344zm-32-211.882812v-52.117188c0-97.050781 78.953125-176 176-176 13.441406 0 26.863281 1.542969 40 4.605469v179.394531c0 4.421875 3.585937 8 8 8h128v8c0 .984375.175781 1.949219.527344 2.871094l35.824219 93.128906h-44.351563c-4.414063 0-8 3.574219-8 8v39.191406c-18.230469-3.722656-32-19.871093-32-39.191406h-16c0 28.152344 20.90625 51.453125 48 55.359375v16.640625c0 13.230469-10.765625 24-24 24h-112v16h16v16h-168v-88c0-2.128906-.839844-4.160156-2.34375-5.65625-29.4375-29.449218-45.65625-68.585937-45.65625-110.226562zm0 0"/><path d="m200.296875 217.597656h16v16h-16zm0 0"/><path d="m200.296875 185.597656h16v16h-16zm0 0"/><path d="m168.296875 185.597656h16v16h-16zm0 0"/><path d="m200.296875 153.597656h16v16h-16zm0 0"/><path d="m200.296875 121.597656h16v16h-16zm0 0"/><path d="m168.296875 121.597656h16v16h-16zm0 0"/><path d="m200.296875 89.597656h16v16h-16zm0 0"/><path d="m200.296875 57.597656h16v16h-16zm0 0"/><path d="m160.296875 57.597656h16v16h-16zm0 0"/><path d="m200.296875 249.597656h16v16h-16zm0 0"/><path d="m200.296875 281.597656h16v16h-16zm0 0"/><path d="m168.296875 249.597656h16v16h-16zm0 0"/><path d="m232.296875 249.597656h16v16h-16zm0 0"/><path d="m264.296875 249.597656h16v16h-16zm0 0"/><path d="m264.296875 281.597656h16v16h-16zm0 0"/><path d="m296.296875 249.597656h16v16h-16zm0 0"/><path d="m328.296875 249.597656h16v16h-16zm0 0"/><path d="m328.296875 281.597656h16v16h-16zm0 0"/></svg>