<svg height="480pt" viewBox="0 0 480 480" width="480pt" xmlns="http://www.w3.org/2000/svg"><path d="m408 336v-264c0-2.128906-.839844-4.160156-2.34375-5.65625l-64-64c-1.496094-1.503906-3.527344-2.34375-5.65625-2.34375h-328c-4.425781 0-8 3.574219-8 8v424c0 4.425781 3.574219 8 8 8h335.601562c11.804688 23.664062 36.199219 40 64.398438 40 39.703125 0 72-32.296875 72-72s-32.296875-72-72-72zm-64-308.6875 36.6875 36.6875h-36.6875zm-328 396.6875v-408h312v56c0 4.425781 3.574219 8 8 8h56v257.855469c-32.015625 7.304687-56 35.953125-56 70.144531 0 5.503906.679688 10.847656 1.855469 16zm392 40c-30.871094 0-56-25.128906-56-56s25.128906-56 56-56 56 25.128906 56 56-25.128906 56-56 56zm0 0"/><path d="m392 420.6875-18.34375-18.34375-11.3125 11.3125 24 24c1.558594 1.558594 3.609375 2.34375 5.65625 2.34375s4.097656-.785156 5.65625-2.34375l48-48-11.3125-11.3125zm0 0"/><path d="m280 312c-23.734375 0-43.449219 17.335938-47.28125 40h-25.4375c-3.824219-22.664062-23.539062-40-47.28125-40s-43.449219 17.335938-47.28125 40h-8.71875c-26.472656 0-48-21.527344-48-48s21.527344-48 48-48h48.71875c3.824219 22.664062 23.539062 40 47.28125 40s43.449219-17.335938 47.28125-40h56.71875c35.289062 0 64-28.710938 64-64s-28.710938-64-64-64h-8.71875c-3.824219-22.664062-23.539062-40-47.28125-40s-43.449219 17.335938-47.28125 40h-65.4375c-3.386719-20.054688-19.226562-35.886719-39.28125-39.28125v-2.957031l42.527344-14.175781c3.074218-1.027344 5.214844-3.792969 5.449218-7.019532.230469-3.230468-1.503906-6.277344-4.402343-7.726562l-48-24c-2.476563-1.230469-5.421875-1.121094-7.78125.351562-2.351563 1.464844-3.792969 4.03125-3.792969 6.808594v48.71875c-22.664062 3.832031-40 23.546875-40 47.28125 0 26.472656 21.527344 48 48 48 23.734375 0 43.449219-17.335938 47.28125-40h65.445312c3.824219 22.664062 23.539063 40 47.28125 40 23.746094 0 43.449219-17.335938 47.28125-40h8.710938c26.472656 0 48 21.527344 48 48s-21.527344 48-48 48h-56.71875c-3.824219-22.664062-23.539062-40-47.28125-40s-43.449219 17.335938-47.28125 40h-48.71875c-35.289062 0-64 28.710938-64 64s28.710938 64 64 64h8.71875c3.824219 22.664062 23.539062 40 47.28125 40s43.449219-17.335938 47.28125-40h25.445312c3.824219 22.664062 23.539063 40 47.28125 40 26.472657 0 48-21.527344 48-48s-21.535156-48-48.007812-48zm-184-259.054688 19.152344 9.566407-19.152344 6.382812zm-8 115.054688c-17.648438 0-32-14.351562-32-32 0-14.871094 10.230469-27.289062 24-30.863281v30.863281h16v-30.863281c13.769531 3.574219 24 15.992187 24 30.863281 0 17.648438-14.351562 32-32 32zm160 0c-17.648438 0-32-14.351562-32-32s14.351562-32 32-32 32 14.351562 32 32-14.351562 32-32 32zm-48 48c17.648438 0 32 14.351562 32 32s-14.351562 32-32 32-32-14.351562-32-32 14.351562-32 32-32zm-40 176c-17.648438 0-32-14.351562-32-32s14.351562-32 32-32 32 14.351562 32 32-14.351562 32-32 32zm120 0c-17.648438 0-32-14.351562-32-32s14.351562-32 32-32 32 14.351562 32 32-14.351562 32-32 32zm0 0"/><path d="m232 32h16v16h-16zm0 0"/><path d="m264 32h16v16h-16zm0 0"/><path d="m296 32h16v16h-16zm0 0"/></svg>