<svg height="480pt" viewBox="0 0 480 480" width="480pt" xmlns="http://www.w3.org/2000/svg"><path d="m380.289062 40.972656c-5.792968-5.792968-13.480468-8.976562-21.65625-8.976562-16.898437 0-30.632812 13.734375-30.632812 30.632812 0 .519532.121094 1.007813.152344 1.519532-.511719-.03125-1.007813-.152344-1.519532-.152344-16.898437 0-30.632812 13.734375-30.632812 30.632812 0 .519532.121094 1.007813.152344 1.519532-.511719-.03125-1.007813-.152344-1.519532-.152344-13.898437 0-25.519531 9.359375-29.257812 22.054687l-41.375-41.367187v-4.6875h16c3.335938 0 6.320312-2.0625 7.488281-5.183594s.289063-6.640625-2.214843-8.832031l-64-56c-3.015626-2.640625-7.519532-2.640625-10.539063 0l-64 56c-2.503906 2.191406-3.390625 5.710937-2.214844 8.832031 1.160157 3.121094 4.144531 5.183594 7.480469 5.183594h16v400c0 4.414062 3.585938 8 8 8h80c4.414062 0 8-3.585938 8-8v-308.6875l24 24v44.6875c0 2.121094.839844 4.160156 2.34375 5.65625l40 40c1.496094 1.503906 3.535156 2.34375 5.65625 2.34375h36.6875l21.65625 21.65625c1.558594 1.558594 3.609375 2.34375 5.65625 2.34375s4.097656-.785156 5.65625-2.34375l112-112c1.503906-1.496094 2.34375-3.535156 2.34375-5.65625v-40c0-2.121094-.839844-4.160156-2.34375-5.65625zm-172.289062 423.023438h-64v-400c0-4.417969-3.585938-8-8-8h-2.703125l42.703125-37.367188 42.703125 37.367188h-2.703125c-4.414062 0-8 3.582031-8 8v1.601562c-3-.96875-6.128906-1.601562-9.367188-1.601562-16.898437 0-30.632812 13.734375-30.632812 30.632812 0 8.175782 3.183594 15.871094 8.976562 21.65625l31.023438 31.023438zm256-283.3125-104 104-18.34375-18.34375c-1.496094-1.503906-3.535156-2.34375-5.65625-2.34375h-36.6875l-35.3125-35.3125v-25.375l10.34375 10.34375 11.3125-11.3125-97.367188-97.367188c-2.769531-2.769531-4.289062-6.441406-4.289062-10.34375 0-8.074218 6.558594-14.632812 14.632812-14.632812 3.902344 0 7.574219 1.519531 10.34375 4.289062l97.367188 97.367188 11.3125-11.3125-33.367188-33.367188c-2.769531-2.769531-4.289062-6.441406-4.289062-10.34375 0-8.074218 6.558594-14.632812 14.632812-14.632812 3.902344 0 7.574219 1.519531 10.34375 4.289062l33.367188 33.367188 11.3125-11.3125-33.367188-33.367188c-2.769531-2.769531-4.289062-6.441406-4.289062-10.34375 0-8.074218 6.558594-14.632812 14.632812-14.632812 3.902344 0 7.574219 1.519531 10.34375 4.289062l33.367188 33.367188 11.3125-11.3125-33.367188-33.367188c-2.769531-2.769531-4.289062-6.441406-4.289062-10.34375 0-8.074218 6.558594-14.632812 14.632812-14.632812 3.902344 0 7.574219 1.519531 10.34375 4.289062l95.023438 95.023438zm0 0"/><path d="m8 479.996094h80c4.414062 0 8-3.585938 8-8v-144c0-4.417969-3.585938-8-8-8h-80c-4.414062 0-8 3.582031-8 8v144c0 4.414062 3.585938 8 8 8zm8-144h64v128h-64zm0 0"/><path d="m344 479.996094c4.414062 0 8-3.585938 8-8v-144c0-4.417969-3.585938-8-8-8h-80c-4.414062 0-8 3.582031-8 8v144c0 4.414062 3.585938 8 8 8zm-72-144h64v128h-64zm0 0"/><path d="m472 319.996094h-80c-4.414062 0-8 3.582031-8 8v144c0 4.414062 3.585938 8 8 8h80c4.414062 0 8-3.585938 8-8v-144c0-4.417969-3.585938-8-8-8zm-8 144h-64v-128h64zm0 0"/><path d="m96 95.996094h16v88h-16zm0 0"/><path d="m96 199.996094h16v16h-16zm0 0"/><path d="m56 127.996094h16v88h-16zm0 0"/><path d="m56 231.996094h16v16h-16zm0 0"/></svg>