<svg height="480pt" viewBox="0 0 480 480" width="480pt" xmlns="http://www.w3.org/2000/svg"><path d="m200 288h80c4.425781 0 8-3.585938 8-8v-80c0-4.414062-3.574219-8-8-8h-80c-4.425781 0-8 3.585938-8 8v80c0 4.414062 3.574219 8 8 8zm8-80h64v64h-64zm0 0"/><path d="m472 192h-80c-4.425781 0-8 3.585938-8 8v80c0 4.414062 3.574219 8 8 8h80c4.425781 0 8-3.585938 8-8v-80c0-4.414062-3.574219-8-8-8zm-8 80h-64v-64h64zm0 0"/><path d="m0 392v80c0 4.414062 3.574219 8 8 8h80c4.425781 0 8-3.585938 8-8v-32h260.6875l-26.34375 26.34375 11.3125 11.3125 40-40c1.558594-1.558594 2.34375-3.609375 2.34375-5.65625s-.785156-4.097656-2.34375-5.65625l-40-40-11.3125 11.3125 26.34375 26.34375h-260.6875v-32c0-4.414062-3.574219-8-8-8h-80c-4.425781 0-8 3.585938-8 8zm16 8h64v64h-64zm0 0"/><path d="m392 480h80c4.425781 0 8-3.585938 8-8v-80c0-4.414062-3.574219-8-8-8h-80c-4.425781 0-8 3.585938-8 8v80c0 4.414062 3.574219 8 8 8zm8-80h64v64h-64zm0 0"/><path d="m477.65625 149.65625-11.3125-11.3125-26.34375 26.34375v-84.6875c0-22.054688-17.945312-40-40-40h-304v-32c0-4.414062-3.574219-8-8-8h-80c-4.425781 0-8 3.585938-8 8v80c0 4.414062 3.574219 8 8 8h32v260.6875l-26.34375-26.34375-11.3125 11.3125 40 40c1.558594 1.558594 3.609375 2.34375 5.65625 2.34375s4.097656-.785156 5.65625-2.34375l40-40-11.3125-11.3125-26.34375 26.34375v-108.6875h108.6875l-26.34375 26.34375 11.3125 11.3125 40-40c1.558594-1.558594 2.34375-3.609375 2.34375-5.65625s-.785156-4.097656-2.34375-5.65625l-40-40-11.3125 11.3125 26.34375 26.34375h-108.6875v-136h32c4.425781 0 8-3.585938 8-8v-32h304c13.230469 0 24 10.769531 24 24v84.6875l-26.34375-26.34375-11.3125 11.3125 40 40c1.558594 1.558594 3.609375 2.34375 5.65625 2.34375s4.097656-.785156 5.65625-2.34375zm-397.65625-69.65625h-64v-64h64zm0 0"/><path d="m112 456h16v16h-16zm0 0"/><path d="m144 456h16v16h-16zm0 0"/><path d="m176 456h16v16h-16zm0 0"/></svg>