<svg height="496pt" viewBox="0 -8 496 496" width="496pt" xmlns="http://www.w3.org/2000/svg"><path d="m475.214844 389.136719c7.816406-7.304688 12.785156-17.617188 12.785156-29.136719 0-22.054688-17.945312-40-40-40s-40 17.945312-40 40c0 11.519531 4.96875 21.832031 12.785156 29.136719-5.015625 2.773437-9.378906 6.527343-12.785156 11.101562-3.40625-4.574219-7.769531-8.328125-12.785156-11.101562 7.816406-7.304688 12.785156-17.617188 12.785156-29.136719 0-19.3125-13.769531-35.472656-32-39.191406v-64.808594h16c4.425781 0 8-3.574219 8-8v-32c0-4.425781-3.574219-8-8-8h-8v-24c0-2.128906-.839844-4.160156-2.34375-5.65625l-16-16-11.3125 11.3125 13.65625 13.65625v20.6875h-32v-64c0-22.054688-17.945312-40-40-40h-12.320312c7.632812-8.503906 12.320312-19.695312 12.320312-32 0-26.472656-21.527344-48-48-48s-48 21.527344-48 48c0 12.304688 4.6875 23.496094 12.320312 32h-49.007812l-45.65625-45.65625c-3.128906-3.128906-8.183594-3.128906-11.3125 0l-24 24c-3.128906 3.128906-3.128906 8.183594 0 11.3125l64 64c1.496094 1.503906 3.527344 2.34375 5.65625 2.34375h40v48h-64v-20.6875l13.65625-13.65625-11.3125-11.3125-16 16c-1.503906 1.496094-2.34375 3.527344-2.34375 5.65625v24h-8c-4.425781 0-8 3.574219-8 8v32c0 4.425781 3.574219 8 8 8h16v64.808594c-18.230469 3.71875-32 19.871094-32 39.191406 0 11.519531 4.96875 21.832031 12.785156 29.136719-5.015625 2.773437-9.378906 6.527343-12.785156 11.101562-3.40625-4.574219-7.769531-8.328125-12.785156-11.101562 7.816406-7.304688 12.785156-17.617188 12.785156-29.136719 0-22.054688-17.945312-40-40-40s-40 17.945312-40 40c0 11.519531 4.96875 21.832031 12.785156 29.136719-12.328125 6.824219-20.785156 19.808593-20.785156 34.863281v48c0 4.425781 3.574219 8 8 8h480c4.425781 0 8-3.574219 8-8v-48c0-15.054688-8.457031-28.039062-20.785156-34.863281zm-27.214844-53.136719c13.230469 0 24 10.769531 24 24s-10.769531 24-24 24-24-10.769531-24-24 10.769531-24 24-24zm-56 24c0 13.230469-10.769531 24-24 24s-24-10.769531-24-24 10.769531-24 24-24 24 10.769531 24 24zm-176-288c0-17.648438 14.351562-32 32-32s32 14.351562 32 32-14.351562 32-32 32-32-14.351562-32-32zm-16 72h-44.6875l-56-56 12.6875-12.6875 42.34375 42.34375c1.496094 1.503906 3.527344 2.34375 5.65625 2.34375h136c13.230469 0 24 10.769531 24 24v64h-24v-56h-16v56h-72v-56c0-4.425781-3.574219-8-8-8zm-88 80h272v16h-272zm248 32v64.808594c-18.230469 3.71875-32 19.871094-32 39.191406 0 11.519531 4.96875 21.832031 12.785156 29.136719-5.015625 2.773437-9.378906 6.527343-12.785156 11.101562-3.40625-4.574219-7.769531-8.328125-12.785156-11.101562 7.816406-7.304688 12.785156-17.617188 12.785156-29.136719 0-22.054688-17.945312-40-40-40s-40 17.945312-40 40c0 11.519531 4.96875 21.832031 12.785156 29.136719-5.015625 2.773437-9.378906 6.527343-12.785156 11.101562-3.40625-4.574219-7.769531-8.328125-12.785156-11.101562 7.816406-7.304688 12.785156-17.617188 12.785156-29.136719 0-22.054688-17.945312-40-40-40s-40 17.945312-40 40c0 11.519531 4.96875 21.832031 12.785156 29.136719-5.015625 2.773437-9.378906 6.527343-12.785156 11.101562-3.40625-4.574219-7.769531-8.328125-12.785156-11.101562 7.816406-7.304688 12.785156-17.617188 12.785156-29.136719 0-19.3125-13.769531-35.472656-32-39.191406v-64.808594zm-96 104c0-13.230469 10.769531-24 24-24s24 10.769531 24 24-10.769531 24-24 24-24-10.769531-24-24zm-80 0c0-13.230469 10.769531-24 24-24s24 10.769531 24 24-10.769531 24-24 24-24-10.769531-24-24zm-56-24c13.230469 0 24 10.769531 24 24s-10.769531 24-24 24-24-10.769531-24-24 10.769531-24 24-24zm-80 0c13.230469 0 24 10.769531 24 24s-10.769531 24-24 24-24-10.769531-24-24 10.769531-24 24-24zm-32 88c0-13.230469 10.769531-24 24-24h16c13.230469 0 24 10.769531 24 24v40h-64zm80 0c0-13.230469 10.769531-24 24-24h16c13.230469 0 24 10.769531 24 24v40h-64zm80 0c0-13.230469 10.769531-24 24-24h16c13.230469 0 24 10.769531 24 24v40h-64zm80 0c0-13.230469 10.769531-24 24-24h16c13.230469 0 24 10.769531 24 24v40h-64zm80 0c0-13.230469 10.769531-24 24-24h16c13.230469 0 24 10.769531 24 24v40h-64zm144 40h-64v-40c0-13.230469 10.769531-24 24-24h16c13.230469 0 24 10.769531 24 24zm0 0"/><path d="m372.9375 143.390625c.992188.417969 2.03125.609375 3.0625.609375 2.078125 0 4.128906-.816406 5.65625-2.34375l29.65625-29.65625h36.6875c22.054688 0 40-17.945312 40-40v-32c0-22.054688-17.945312-40-40-40h-80c-22.054688 0-40 17.945312-40 40v32c0 22.054688 17.945312 40 40 40v24c0 3.230469 1.945312 6.160156 4.9375 7.390625zm-28.9375-71.390625v-32c0-13.230469 10.769531-24 24-24h80c13.230469 0 24 10.769531 24 24v32c0 13.230469-10.769531 24-24 24h-40c-2.128906 0-4.160156.839844-5.65625 2.34375l-18.34375 18.34375v-12.6875c0-4.425781-3.574219-8-8-8h-8c-13.230469 0-24-10.769531-24-24zm0 0"/><path d="m360 32h96v16h-96zm0 0"/><path d="m376 64h16v16h-16zm0 0"/><path d="m408 64h16v16h-16zm0 0"/><path d="m440 64h16v16h-16zm0 0"/><path d="m240 136h16v16h-16zm0 0"/></svg>