<svg height="480pt" viewBox="0 0 480 480.002" width="480pt" xmlns="http://www.w3.org/2000/svg"><path d="m400 172.003906c0-11.035156 8.96875-20 20-20 19.847656 0 36-16.152344 36-36 0-19.851562-16.152344-36-36-36h-152.6875l-77.65625-77.65625c-3.128906-3.128906-8.183594-3.128906-11.3125 0l-176 176c-1.503906 1.496094-2.34375 3.527344-2.34375 5.65625v288c0 4.421875 3.578125 8 8 8h352c4.425781 0 8-3.578125 8-8v-288c0-2.128906-.839844-4.160156-2.34375-5.65625l-82.34375-82.34375h136.6875c11.03125 0 20 8.964844 20 20 0 11.03125-8.96875 20-20 20-19.847656 0-36 16.148438-36 36 0 19.847656 16.152344 36 36 36h60v-16h-60c-11.03125 0-20-8.96875-20-20zm-48 15.308594v276.691406h-336v-276.691406l168-168 60.6875 60.691406h-29.824219c-3.574219-13.769531-15.992187-24-30.863281-24-17.648438 0-32 14.351563-32 32 0 17.644532 14.351562 32 32 32 14.871094 0 27.289062-10.234375 30.863281-24h45.824219zm-154.222656-91.308594c-2.777344 4.757813-7.878906 8-13.777344 8-8.824219 0-16-7.179687-16-16 0-8.824218 7.175781-16 16-16 5.898438 0 11 3.238282 13.777344 8h-13.777344v16zm0 0"/><path d="m211.105469 170.867188-22.199219-17.191407c-2.890625-2.234375-6.90625-2.234375-9.800781 0l-22.199219 17.191407-27.832031-3.808594c-3.617188-.464844-7.121094 1.511718-8.496094 4.910156l-10.601563 26-26 10.601562c-3.382812 1.375-5.40625 4.863282-4.910156 8.496094l3.804688 27.832032-17.191406 22.199218c-2.222657 2.878906-2.222657 6.914063 0 9.800782l17.191406 22.199218-3.804688 27.832032c-.496094 3.625 1.527344 7.121093 4.910156 8.496093l26 10.601563 10.601563 26c1.375 3.390625 4.878906 5.34375 8.496094 4.910156l27.832031-3.808594 22.199219 17.191406c1.441406 1.128907 3.167969 1.683594 4.894531 1.683594 1.730469 0 3.457031-.554687 4.898438-1.675781l22.199218-17.191406 27.832032 3.808593c3.574218.433594 7.121093-1.519531 8.496093-4.910156l10.597657-26 26-10.601562c3.386718-1.375 5.410156-4.863282 4.914062-8.496094l-3.808594-27.832031 17.191406-22.199219c2.226563-2.878906 2.226563-6.914062 0-9.800781l-17.191406-22.199219 3.808594-27.832031c.496094-3.625-1.527344-7.121094-4.914062-8.496094l-26-10.601563-10.597657-26c-1.375-3.398437-4.914062-5.375-8.496093-4.910156zm37.757812 40.65625 23.378907 9.527343-3.425782 25c-.289062 2.136719.289063 4.289063 1.601563 5.984375l15.464843 19.96875-15.464843 19.957032c-1.3125 1.695312-1.890625 3.847656-1.601563 5.984374l3.425782 25-23.378907 9.527344c-2 .816406-3.574219 2.394532-4.390625 4.394532l-9.527344 23.375-25-3.425782c-2.175781-.285156-4.28125.289063-5.984374 1.601563l-19.960938 15.464843-19.960938-15.464843c-1.414062-1.089844-3.132812-1.671875-4.894531-1.671875-.359375 0-.71875.023437-1.085937.070312l-25 3.425782-9.53125-23.375c-.8125-2-2.390625-3.578126-4.390625-4.394532l-23.375-9.527344 3.421875-25c.289062-2.136718-.285156-4.289062-1.597656-5.984374l-15.464844-19.957032 15.464844-19.960937c1.3125-1.695313 1.886718-3.847657 1.597656-5.984375l-3.421875-25 23.375-9.527344c2-.816406 3.578125-2.394531 4.390625-4.394531l9.53125-23.375 25 3.425781c2.167968.269531 4.277344-.296875 5.980468-1.601562l19.960938-15.464844 19.960938 15.464844c1.703124 1.304687 3.808593 1.871093 5.984374 1.601562l25-3.425781 9.527344 23.375c.816406 2 2.390625 3.578125 4.390625 4.386719zm0 0"/><path d="m32 416.003906h16v32h-16zm0 0"/><path d="m64 416.003906h16v32h-16zm0 0"/><path d="m96 416.003906h16v32h-16zm0 0"/><path d="m128 416.003906h16v32h-16zm0 0"/><path d="m160 416.003906h16v32h-16zm0 0"/><path d="m192 416.003906h16v32h-16zm0 0"/><path d="m224 416.003906h16v32h-16zm0 0"/><path d="m256 416.003906h16v32h-16zm0 0"/><path d="m288 416.003906h16v32h-16zm0 0"/><path d="m320 416.003906h16v32h-16zm0 0"/><path d="m130.34375 314.34375 96-96.003906 11.316406 11.316406-96.003906 96zm0 0"/><path d="m152 240.003906h16v16h-16zm0 0"/><path d="m192 296.003906h16v16h-16zm0 0"/></svg>