<svg height="480pt" viewBox="0 0 480 480" width="480pt" xmlns="http://www.w3.org/2000/svg"><path d="m224 24c-31.625 0-61.542969 7.40625-88.152344 20.535156l-42.191406-42.191406c-1.496094-1.503906-3.535156-2.34375-5.65625-2.34375h-16v16h12.6875l36.519531 36.519531c-58.191406 35.007813-97.207031 98.769531-97.207031 171.480469 0 4.425781 3.585938 8 8 8h192c4.414062 0 8-3.574219 8-8v-192c0-4.425781-3.585938-8-8-8zm-8 192h-175.832031c2.792969-64.976562 39.472656-121.289062 92.742187-151.777344l29.433594 29.433594 11.3125-11.3125-25.785156-25.785156c20.929687-9.558594 43.914062-15.34375 68.128906-16.390625zm0 0"/><path d="m224 248h-192c-4.414062 0-8 3.574219-8 8 0 72.710938 39.015625 136.472656 97.199219 171.480469l-36.511719 36.519531h-12.6875v16h16c2.121094 0 4.160156-.839844 5.65625-2.34375l42.191406-42.191406c26.609375 13.128906 56.527344 20.535156 88.152344 20.535156 4.414062 0 8-3.574219 8-8v-192c0-4.425781-3.585938-8-8-8zm-8 191.832031c-24.214844-1.039062-47.199219-6.832031-68.128906-16.382812l25.785156-25.785157-11.3125-11.3125-29.433594 29.433594c-53.261718-30.496094-89.941406-86.808594-92.742187-151.785156h175.832031zm0 0"/><path d="m408 16v-16h-16c-2.121094 0-4.160156.839844-5.65625 2.34375l-42.191406 42.191406c-26.609375-13.128906-56.527344-20.535156-88.152344-20.535156-4.414062 0-8 3.574219-8 8v192c0 4.425781 3.585938 8 8 8h192c4.414062 0 8-3.574219 8-8 0-72.710938-39.015625-136.472656-97.199219-171.480469l36.511719-36.519531zm31.832031 200h-175.832031v-175.832031c24.214844 1.039062 47.199219 6.832031 68.128906 16.382812l-25.785156 25.785157 11.3125 11.3125 29.433594-29.433594c53.261718 30.496094 89.941406 86.808594 92.742187 151.785156zm0 0"/><path d="m424 0h56v16h-56zm0 0"/><path d="m424 32h56v16h-56zm0 0"/><path d="m424 64h56v16h-56zm0 0"/><path d="m358.800781 427.480469c58.183594-35.007813 97.199219-98.769531 97.199219-171.480469 0-4.425781-3.585938-8-8-8h-192c-4.414062 0-8 3.574219-8 8v192c0 4.425781 3.585938 8 8 8 31.625 0 61.542969-7.40625 88.152344-20.535156l42.191406 42.191406c1.496094 1.503906 3.535156 2.34375 5.65625 2.34375h16v-16h-12.6875zm-94.800781 12.351562v-175.832031h175.832031c-2.792969 64.976562-39.472656 121.289062-92.742187 151.777344l-29.433594-29.433594-11.3125 11.3125 25.785156 25.785156c-20.929687 9.550782-43.914062 15.34375-68.128906 16.390625zm0 0"/><path d="m424 464h56v16h-56zm0 0"/><path d="m424 432h56v16h-56zm0 0"/><path d="m424 400h56v16h-56zm0 0"/><path d="m0 0h56v16h-56zm0 0"/><path d="m0 32h56v16h-56zm0 0"/><path d="m0 64h56v16h-56zm0 0"/><path d="m0 464h56v16h-56zm0 0"/><path d="m0 432h56v16h-56zm0 0"/><path d="m0 400h56v16h-56zm0 0"/><path d="m280 184h16v16h-16zm0 0"/><path d="m312 184h16v16h-16zm0 0"/><path d="m344 184h16v16h-16zm0 0"/></svg>