<svg height="480pt" viewBox="0 0 480.00599 480" width="480pt" xmlns="http://www.w3.org/2000/svg"><path d="m408 384.003906h-104v-27.457031c57.382812-21.246094 101.695312-70.414063 115.398438-132.542969h52.601562c2.777344 0 5.34375-1.441406 6.808594-3.792968 1.464844-2.359376 1.589844-5.304688.351562-7.785157l-14.214844-28.421875 14.207032-28.425781c1.238281-2.480469 1.113281-5.421875-.351563-7.78125-1.457031-2.355469-4.023437-3.792969-6.800781-3.792969h-52.601562c-18.476563-83.800781-92.773438-143.99999975-179.398438-143.99999975-101.464844 0-184 82.54296875-184 183.99999975 0 78.960938 50 146.445313 120 172.503906v27.496094h-104c-39.703125 0-72 32.304688-72 72v16c0 4.414063 3.574219 8 8 8h464c4.425781 0 8-3.585937 8-8v-16c0-39.695312-32.296875-72-72-72zm40.839844-196.425781 10.214844 20.425781h-46.109376l-12-24 12-24h46.109376l-10.207032 20.421875c-1.128906 2.25-1.128906 4.90625-.007812 7.152344zm-376.839844-3.574219c0-92.640625 75.367188-168 168-168 78.441406 0 145.785156 54.046875 163.367188 129.550782-1.03125.746093-1.925782 1.6875-2.519532 2.871093l-13.792968 27.578125h-11.453126c-4.1875-71.265625-63.3125-128-135.601562-128-74.992188 0-136 61.007813-136 136 0 74.992188 61.007812 136 136 136 72.289062 0 131.414062-56.738281 135.59375-128h11.453125l13.792969 27.574219c.59375 1.183594 1.488281 2.128906 2.519531 2.871094-17.574219 75.503906-84.917969 129.554687-163.359375 129.554687-92.632812 0-168-75.359375-168-168zm271.59375-8c-4.113281-53.609375-48.953125-96-103.59375-96-57.34375 0-104 46.65625-104 104s46.65625 104 104 104c54.640625 0 99.480469-42.394531 103.59375-96h16c-4.144531 62.4375-56.121094 112-119.59375 112-66.167969 0-120-53.832031-120-120 0-66.167968 53.832031-120 120-120 63.472656 0 115.449219 49.558594 119.59375 112zm-56.3125 0c-3.824219-22.664062-23.539062-40-47.28125-40-26.472656 0-48 21.527344-48 48s21.527344 48 48 48c23.734375 0 43.449219-17.335937 47.28125-40h40.320312c-4.066406 44.78125-41.777343 80-87.601562 80-48.519531 0-88-39.480468-88-88 0-48.519531 39.480469-88 88-88 45.824219 0 83.535156 35.214844 87.59375 80zm-55.28125-8v32h16v-8h22.863281c-3.574219 13.757813-15.992187 24-30.863281 24-17.648438 0-32-14.351562-32-32 0-17.648437 14.351562-32 32-32 14.871094 0 27.289062 10.238282 30.863281 24h-22.863281v-8zm8 200c16.542969 0 32.648438-2.207031 48-6.34375v25.703125l-48 27.421875-48-27.421875v-25.753906c15.3125 4.144531 31.390625 6.394531 48 6.394531zm224 96h-448v-8c0-30.882812 25.128906-56 56-56h109.871094l54.160156 30.941406c2.457031 1.410157 5.488281 1.410157 7.9375 0l54.160156-30.941406h109.871094c30.871094 0 56 25.117188 56 56zm0 0"/><path d="m432 432.003906h16v16h-16zm0 0"/><path d="m400 432.003906h16v16h-16zm0 0"/><path d="m368 432.003906h16v16h-16zm0 0"/></svg>