<svg height="480pt" viewBox="0 0 480 480" width="480pt" xmlns="http://www.w3.org/2000/svg"><path d="m472 184h-120v-128c0-4.425781-3.574219-8-8-8h-40v-40c0-4.425781-3.574219-8-8-8h-288c-4.425781 0-8 3.574219-8 8v368c0 4.425781 3.574219 8 8 8h40v40c0 4.425781 3.574219 8 8 8h168v40c0 4.425781 3.574219 8 8 8h240c4.425781 0 8-3.574219 8-8v-280c0-4.425781-3.574219-8-8-8zm-456 184v-352h272v32h-168c-2.128906 0-4.160156.839844-5.65625 2.34375l-64 64c-1.503906 1.496094-2.34375 3.527344-2.34375 5.65625v248zm96-292.6875v36.6875h-36.6875zm-48 340.6875v-288h56c4.425781 0 8-3.574219 8-8v-56h208v120h-32v-32c0-4.425781-3.574219-8-8-8h-192c-4.425781 0-8 3.574219-8 8v224c0 4.425781 3.574219 8 8 8h120v32zm88-48h-40v-168h40zm16-168h56v168h-56zm-56-16v-24h40v24zm128 280v-264h16v264zm-8-280h-64v-24h120v24zm232 280h-192v-264h192zm0 0"/><path d="m312 304c-4.414062 0-8-3.585938-8-8h-16c0 10.414062 6.710938 19.214844 16 22.527344v9.472656h16v-9.472656c9.289062-3.3125 16-12.113282 16-22.527344v-8c0-13.230469-10.769531-24-24-24-4.414062 0-8-3.585938-8-8v-8c0-4.414062 3.585938-8 8-8s8 3.585938 8 8h16c0-10.414062-6.710938-19.214844-16-22.527344v-9.472656h-16v9.472656c-9.289062 3.3125-16 12.113282-16 22.527344v8c0 13.230469 10.769531 24 24 24 4.414062 0 8 3.585938 8 8v8c0 4.414062-3.585938 8-8 8zm0 0"/><path d="m368 304c-4.414062 0-8-3.585938-8-8h-16c0 10.414062 6.710938 19.214844 16 22.527344v9.472656h16v-9.472656c9.289062-3.3125 16-12.113282 16-22.527344v-8c0-13.230469-10.769531-24-24-24-4.414062 0-8-3.585938-8-8v-8c0-4.414062 3.585938-8 8-8s8 3.585938 8 8h16c0-10.414062-6.710938-19.214844-16-22.527344v-9.472656h-16v9.472656c-9.289062 3.3125-16 12.113282-16 22.527344v8c0 13.230469 10.769531 24 24 24 4.414062 0 8 3.585938 8 8v8c0 4.414062-3.585938 8-8 8zm0 0"/><path d="m424 304c-4.414062 0-8-3.585938-8-8h-16c0 10.414062 6.710938 19.214844 16 22.527344v9.472656h16v-9.472656c9.289062-3.3125 16-12.113282 16-22.527344v-8c0-13.230469-10.769531-24-24-24-4.414062 0-8-3.585938-8-8v-8c0-4.414062 3.585938-8 8-8s8 3.585938 8 8h16c0-10.414062-6.710938-19.214844-16-22.527344v-9.472656h-16v9.472656c-9.289062 3.3125-16 12.113282-16 22.527344v8c0 13.230469 10.769531 24 24 24 4.414062 0 8 3.585938 8 8v8c0 4.414062-3.585938 8-8 8zm0 0"/><path d="m329.523438 435.320312 64-87.992187 12.933593 9.40625-64 87.992187zm0 0"/><path d="m336 368h16v16h-16zm0 0"/><path d="m384 408h16v16h-16zm0 0"/><path d="m144 96h120v16h-120zm0 0"/></svg>