<svg height="480pt" viewBox="0 0 480 480" width="480pt" xmlns="http://www.w3.org/2000/svg"><path d="m48 472c0 4.414062 3.585938 8 8 8h192c4.414062 0 8-3.585938 8-8v-40h104c22.054688 0 40-17.945312 40-40v-64h72c2.808594 0 5.414062-1.472656 6.855469-3.878906 1.441406-2.410156 1.519531-5.402344.199219-7.882813l-63.070313-118.253906c-1.082031-109.359375-90.375-197.984375-199.984375-197.984375h-16c-110.28125 0-200 89.71875-200 200v44.121094c0 44.789062 17.015625 86.976562 48 119.152344zm-32-227.878906v-44.121094c0-101.457031 82.542969-184 184-184h16c101.457031 0 184 82.542969 184 184 0 1.3125.328125 2.609375.945312 3.769531l57.71875 108.230469h-66.664062c-4.414062 0-8 3.585938-8 8v46.527344c-9.289062-3.3125-16-12.113282-16-22.527344h-16c0 19.3125 13.769531 35.472656 32 39.191406v8.808594c0 13.230469-10.769531 24-24 24h-144v16h24v32h-176v-104c0-2.121094-.839844-4.160156-2.34375-5.65625-29.441406-29.441406-45.65625-68.589844-45.65625-110.222656zm0 0"/><path d="m120 336h176c22.054688 0 40-17.945312 40-40v-176c0-22.054688-17.945312-40-40-40h-176c-22.054688 0-40 17.945312-40 40v176c0 22.054688 17.945312 40 40 40zm-24-40v-80h24v4c0 15.441406 12.558594 28 28 28s28-12.558594 28-28v-4h24v32c0 4.414062 3.585938 8 8 8h12c6.617188 0 12 5.382812 12 12s-5.382812 12-12 12h-12c-4.414062 0-8 3.585938-8 8v32h-80c-13.230469 0-24-10.769531-24-24zm200 24h-80v-24h4c15.441406 0 28-12.558594 28-28s-12.558594-28-28-28h-4v-24h32c4.414062 0 8-3.585938 8-8v-12c0-6.617188 5.382812-12 12-12s12 5.382812 12 12v12c0 4.414062 3.585938 8 8 8h32v80c0 13.230469-10.769531 24-24 24zm24-200v80h-24v-4c0-15.441406-12.558594-28-28-28s-28 12.558594-28 28v4h-24v-32c0-4.414062-3.585938-8-8-8h-12c-6.617188 0-12-5.382812-12-12s5.382812-12 12-12h12c4.414062 0 8-3.585938 8-8v-32h80c13.230469 0 24 10.769531 24 24zm-200-24h80v24h-4c-15.441406 0-28 12.558594-28 28s12.558594 28 28 28h4v24h-32c-4.414062 0-8 3.585938-8 8v12c0 6.617188-5.382812 12-12 12s-12-5.382812-12-12v-12c0-4.414062-3.585938-8-8-8h-32v-80c0-13.230469 10.769531-24 24-24zm0 0"/><path d="m184 416h16v16h-16zm0 0"/><path d="m152 416h16v16h-16zm0 0"/><path d="m120 416h16v16h-16zm0 0"/></svg>