<svg height="480pt" viewBox="0 0 480 480" width="480pt" xmlns="http://www.w3.org/2000/svg"><path d="m8 304h32v168c0 4.425781 3.574219 8 8 8h48c4.425781 0 8-3.574219 8-8v-79.207031l16.160156 80.78125c.742188 3.730469 4.023438 6.425781 7.839844 6.425781h48c2.359375 0 4.601562-1.046875 6.128906-2.847656 1.511719-1.808594 2.167969-4.191406 1.757813-6.511719l-31.886719-183.328125v-76l34.34375 34.34375c1.496094 1.503906 3.527344 2.34375 5.65625 2.34375h88c4.425781 0 8-3.574219 8-8v-36.6875l69.65625-69.65625-11.3125-11.3125-69.65625 69.65625h-57.375l-44.28125-44.28125c-7.550781-7.550781-17.597656-11.71875-28.289062-11.71875h-11.621094c10.398437-10.175781 16.878906-24.335938 16.878906-40 0-30.871094-25.128906-56-56-56s-56 25.128906-56 56c0 15.664062 6.480469 29.824219 16.886719 40h-.886719c-30.871094 0-56 25.128906-56 56v104c0 4.425781 3.574219 8 8 8zm48-208c0-22.054688 17.945312-40 40-40s40 17.945312 40 40-17.945312 40-40 40-40-17.945312-40-40zm-40 96c0-22.054688 17.945312-40 40-40h90.742188c6.417968 0 12.449218 2.496094 16.976562 7.03125l46.625 46.625c1.496094 1.503906 3.527344 2.34375 5.65625 2.34375h56v24h-76.6875l-45.65625-45.65625c-2.289062-2.289062-5.71875-2.976562-8.71875-1.734375-2.992188 1.230469-4.9375 4.160156-4.9375 7.390625v96c0 .464844.039062.921875.121094 1.367188l30.375 174.632812h-31.9375l-30.71875-153.566406c-.808594-4.035156-4.609375-6.769532-8.632813-6.394532-4.085937.410157-7.207031 3.847657-7.207031 7.960938v152h-32v-272h-16v96h-24zm0 0"/><path d="m88 256h16v-72h8v-16h-32v16h8zm0 0"/><path d="m459.214844 397.136719c7.816406-7.304688 12.785156-17.617188 12.785156-29.136719 0-22.054688-17.945312-40-40-40s-40 17.945312-40 40c0 11.519531 4.96875 21.832031 12.785156 29.136719-5.015625 2.773437-9.378906 6.527343-12.785156 11.101562-3.40625-4.574219-7.769531-8.328125-12.785156-11.101562 7.816406-7.304688 12.785156-17.617188 12.785156-29.136719 0-22.054688-17.945312-40-40-40s-40 17.945312-40 40c0 11.519531 4.96875 21.832031 12.785156 29.136719-5.015625 2.773437-9.378906 6.527343-12.785156 11.101562-3.40625-4.574219-7.769531-8.328125-12.785156-11.101562 7.816406-7.304688 12.785156-17.617188 12.785156-29.136719 0-22.054688-17.945312-40-40-40s-40 17.945312-40 40c0 11.519531 4.96875 21.832031 12.785156 29.136719-12.328125 6.824219-20.785156 19.808593-20.785156 34.863281v40c0 4.425781 3.574219 8 8 8h240c4.425781 0 8-3.574219 8-8v-40c0-15.054688-8.457031-28.039062-20.785156-34.863281zm-27.214844-53.136719c13.230469 0 24 10.769531 24 24s-10.769531 24-24 24-24-10.769531-24-24 10.769531-24 24-24zm-80 0c13.230469 0 24 10.769531 24 24s-10.769531 24-24 24-24-10.769531-24-24 10.769531-24 24-24zm-80 0c13.230469 0 24 10.769531 24 24s-10.769531 24-24 24-24-10.769531-24-24 10.769531-24 24-24zm-32 88c0-13.230469 10.769531-24 24-24h16c13.230469 0 24 10.769531 24 24v32h-64zm80 0c0-13.230469 10.769531-24 24-24h16c13.230469 0 24 10.769531 24 24v32h-64zm144 32h-64v-32c0-13.230469 10.769531-24 24-24h16c13.230469 0 24 10.769531 24 24zm0 0"/><path d="m464 184h-16v48h-16v-88h-16v88h-16v-32h-16v32h-16v-64h-16v64h-16v-32h-16v32h-16v16h176v-16h-16zm0 0"/><path d="m176 112h120c22.054688 0 40-17.945312 40-40v-32c0-22.054688-17.945312-40-40-40h-64c-22.054688 0-40 17.945312-40 40v36.6875l-21.65625 21.65625c-2.289062 2.289062-2.976562 5.726562-1.734375 8.71875 1.230469 2.992188 4.160156 4.9375 7.390625 4.9375zm29.65625-26.34375c1.503906-1.496094 2.34375-3.527344 2.34375-5.65625v-40c0-13.230469 10.769531-24 24-24h64c13.230469 0 24 10.769531 24 24v32c0 13.230469-10.769531 24-24 24h-100.6875zm0 0"/><path d="m224 32h80v16h-80zm0 0"/><path d="m224 64h80v16h-80zm0 0"/><path d="m368 32h112v16h-112zm0 0"/><path d="m368 64h112v16h-112zm0 0"/><path d="m440 96h40v16h-40zm0 0"/><path d="m368 264h112v16h-112zm0 0"/><path d="m400 296h16v16h-16zm0 0"/><path d="m432 296h16v16h-16zm0 0"/><path d="m464 296h16v16h-16zm0 0"/></svg>